<?xml version="1.0" encoding="utf-8"?>
<!-- Generator: Adobe Illustrator 25.0.1, SVG Export Plug-In . SVG Version: 6.00 Build 0)  -->
<svg version="1.1" id="Слой_1" xmlns="http://www.w3.org/2000/svg" xmlns:xlink="http://www.w3.org/1999/xlink" x="0px" y="0px"
	 viewBox="0 0 128 128" style="enable-background:new 0 0 128 128;" xml:space="preserve">
<style type="text/css">
	.st0{fill:#FFFFFF;stroke:#000000;stroke-width:6;stroke-miterlimit:10;}
</style>
<ellipse class="st0" cx="64" cy="64" rx="52.4" ry="51.5"/>
<g>
	<g>
		<path d="M35.7,68.1c-1.2,0-2.2-1.3-2.2-2.8v-2.5c0-1.5,1-2.8,2.2-2.8h56.6c1.2,0,2.2,1.3,2.2,2.8v2.5c0,1.5-1,2.8-2.2,2.8H35.7z"
			/>
		<path d="M92.3,60.4c1,0,1.8,1,1.8,2.3v2.5c0,1.3-0.8,2.3-1.8,2.3H35.7c-1,0-1.8-1-1.8-2.3v-2.5c0-1.3,0.8-2.3,1.8-2.3H92.3
			 M92.3,59.4H35.7c-1.4,0-2.6,1.5-2.6,3.3v2.5c0,1.8,1.2,3.3,2.6,3.3h56.6c1.4,0,2.6-1.5,2.6-3.3v-2.5
			C94.8,60.9,93.7,59.4,92.3,59.4L92.3,59.4z"/>
	</g>
	<g>
		<path d="M35.7,46.5c-1.2,0-2.2-1.3-2.2-2.8v-2.5c0-1.5,1-2.8,2.2-2.8h56.6c1.2,0,2.2,1.3,2.2,2.8v2.5c0,1.5-1,2.8-2.2,2.8H35.7z"
			/>
		<path d="M92.3,38.8c1,0,1.8,1,1.8,2.3v2.5c0,1.3-0.8,2.3-1.8,2.3H35.7c-1,0-1.8-1-1.8-2.3v-2.5c0-1.3,0.8-2.3,1.8-2.3H92.3
			 M92.3,37.8H35.7c-1.4,0-2.6,1.5-2.6,3.3v2.5c0,1.8,1.2,3.3,2.6,3.3h56.6c1.4,0,2.6-1.5,2.6-3.3v-2.5
			C94.8,39.3,93.7,37.8,92.3,37.8L92.3,37.8z"/>
	</g>
	<g>
		<path d="M35.7,89.7c-1.2,0-2.2-1.3-2.2-2.8v-2.5c0-1.5,1-2.8,2.2-2.8h56.6c1.2,0,2.2,1.3,2.2,2.8v2.5c0,1.5-1,2.8-2.2,2.8H35.7z"
			/>
		<path d="M92.3,82c1,0,1.8,1,1.8,2.3v2.5c0,1.3-0.8,2.3-1.8,2.3H35.7c-1,0-1.8-1-1.8-2.3v-2.5c0-1.3,0.8-2.3,1.8-2.3H92.3 M92.3,81
			H35.7c-1.4,0-2.6,1.5-2.6,3.3v2.5c0,1.8,1.2,3.3,2.6,3.3h56.6c1.4,0,2.6-1.5,2.6-3.3v-2.5C94.8,82.5,93.7,81,92.3,81L92.3,81z"/>
	</g>
</g>
</svg>
